<?xml version="1.0" encoding="UTF-8"?>
<svg xmlns="http://www.w3.org/2000/svg" viewBox="0 0 1200 630" width="1200" height="630">
  <defs>
    <linearGradient id="g43848" x1="69.53655642446368%" y1="3.9747573273779793%" x2="30.46344357553632%" y2="96.02524267262203%">
      <stop offset="0%" stop-color="#7C3AED"/>
      <stop offset="100%" stop-color="#6D28D9"/>
    </linearGradient>
  </defs>
  <rect width="1200" height="630" fill="url(#g43848)"/>
  <rect x="260.5101246852428" y="321.0035243630409" width="28" height="128.99647563695908" rx="3" fill="rgba(255,255,255,0.10501863423734903)"/><rect x="300.5101246852428" y="308.2354386430234" width="28" height="141.76456135697663" rx="3" fill="rgba(255,255,255,0.0619234617985785)"/><rect x="340.5101246852428" y="312.6193148177117" width="28" height="137.3806851822883" rx="3" fill="rgba(255,255,255,0.1084857769869268)"/><rect x="380.5101246852428" y="326.4597867242992" width="28" height="123.54021327570081" rx="3" fill="rgba(255,255,255,0.07004738429561257)"/><rect x="420.5101246852428" y="364.9774840194732" width="28" height="85.0225159805268" rx="3" fill="rgba(255,255,255,0.08282716350629926)"/><rect x="460.5101246852428" y="309.2723351530731" width="28" height="140.72766484692693" rx="3" fill="rgba(255,255,255,0.10237114071846008)"/><rect x="500.5101246852428" y="221.86470526270568" width="28" height="228.13529473729432" rx="3" fill="rgba(255,255,255,0.06609461778774857)"/><path d="M 600 439.5212063449435 L 650 387.3628408322111 L 700 361.87785565154627 L 750 321.88159250770696 L 800 305.3691333485767 L 850 284.91260544396937 L 900 256.75381989218295 L 950 224.90707292919978 L 1000 187.01375113567337 L 1050 171.06009751209058 L 1100 149.35521106235683" fill="none" stroke="rgba(255,255,255,0.18)" stroke-width="2.5"/><text x="978.7094783037901" y="194.5048999041319" font-family="sans-serif" font-size="94.72890049219131" fill="rgba(255,255,255,0.042655678542796525)">₹</text><text x="1097.6547451224178" y="270.0659842696041" font-family="sans-serif" font-size="65.31452850438654" fill="rgba(255,255,255,0.10957309950841593)">₹</text><text x="158.79174312576652" y="158.7587941903621" font-family="sans-serif" font-size="96.64543113205582" fill="rgba(255,255,255,0.08447862915927545)">¥</text><text x="414.33527963235974" y="147.71691234782338" font-family="sans-serif" font-size="87.47551255393773" fill="rgba(255,255,255,0.07533533622510732)">£</text><text x="139.02429714798927" y="209.51847066171467" font-family="sans-serif" font-size="88.16204686183482" fill="rgba(255,255,255,0.0768961939471774)">$</text><circle cx="1028.1772626447491" cy="249.16820269078016" r="63.860035692341626" fill="none" stroke="rgba(255,255,255,0.1)" stroke-width="2"/><line x1="1028.1772626447491" y1="249.16820269078016" x2="967.3167375069281" y2="229.82652131154617" stroke="rgba(255,255,255,0.1)" stroke-width="2"/><line x1="1028.1772626447491" y1="249.16820269078016" x2="965.0062680796201" y2="258.5239284391966" stroke="rgba(255,255,255,0.1)" stroke-width="2"/><line x1="1028.1772626447491" y1="249.16820269078016" x2="994.2239373695934" y2="303.25402210203265" stroke="rgba(255,255,255,0.1)" stroke-width="2"/>
  <circle cx="1166.7079699225724" cy="239.4825161830522" r="1.8017527041956782" fill="rgba(255,255,255,0.05929372779326514)"/><circle cx="719.3726861849427" cy="96.64991118712351" r="2.5570666012354195" fill="rgba(255,255,255,0.07723381177755073)"/><circle cx="241.53217412531376" cy="148.56043185805902" r="1.0527220461517572" fill="rgba(255,255,255,0.03042332257144153)"/><circle cx="435.65520141273737" cy="151.00291234441102" r="1.2655784972012043" fill="rgba(255,255,255,0.03649776511127129)"/><circle cx="704.4071380980313" cy="272.68980398308486" r="1.2905233730562031" fill="rgba(255,255,255,0.07484603049932048)"/><circle cx="553.0624941922724" cy="24.90149802993983" r="2.724302220158279" fill="rgba(255,255,255,0.054785515782423314)"/><circle cx="691.166022978723" cy="109.93165251798928" r="2.911756480112672" fill="rgba(255,255,255,0.07827844990650193)"/><circle cx="731.4713808707893" cy="361.7884429078549" r="2.3366115568205714" fill="rgba(255,255,255,0.050578816067427396)"/><circle cx="552.1694155409932" cy="178.9197340537794" r="2.1124814888462424" fill="rgba(255,255,255,0.07359957019332797)"/><circle cx="712.5068209134042" cy="575.5018117069267" r="1.5651458539068699" fill="rgba(255,255,255,0.07908132108394056)"/><circle cx="581.669167522341" cy="35.232024940196425" r="1.7701687840744853" fill="rgba(255,255,255,0.07165093249175697)"/><circle cx="358.42562578618526" cy="268.637479939498" r="1.2247152789495885" fill="rgba(255,255,255,0.04512043043039739)"/><circle cx="420.54972192272544" cy="503.1386674451642" r="2.476807360071689" fill="rgba(255,255,255,0.0771836204524152)"/><circle cx="112.20154445618391" cy="32.98274895641953" r="2.9709958164021373" fill="rgba(255,255,255,0.06357423801207915)"/><circle cx="459.60501646623015" cy="567.196324984543" r="1.7955939038656652" fill="rgba(255,255,255,0.050918729598633944)"/><circle cx="676.2614409439266" cy="69.37222457723692" r="1.7512956229038537" fill="rgba(255,255,255,0.06094303311081603)"/><circle cx="851.0567793622613" cy="276.5381877729669" r="2.888108858373016" fill="rgba(255,255,255,0.0716853761067614)"/><circle cx="1069.4533875212073" cy="539.0098650357686" r="2.2363226800225675" fill="rgba(255,255,255,0.057343943063169714)"/><circle cx="54.641491547226906" cy="388.1617986294441" r="2.3277626619674265" fill="rgba(255,255,255,0.06705628945026547)"/><circle cx="219.36593307182193" cy="313.5810131323524" r="1.987178688403219" fill="rgba(255,255,255,0.07900544807314873)"/>
  <text x="600" y="335" font-family="system-ui, -apple-system, 'Segoe UI', sans-serif" font-size="68" font-weight="700" fill="rgba(0,0,0,0.15)" text-anchor="middle" letter-spacing="1">Ca Intermediate</text>
  <text x="600" y="332" font-family="system-ui, -apple-system, 'Segoe UI', sans-serif" font-size="68" font-weight="700" fill="white" text-anchor="middle" letter-spacing="1">Ca Intermediate</text>
  <g transform="translate(1140, 575)">
    <rect x="0" y="0" width="40" height="40" rx="8" fill="rgba(255,255,255,0.15)"/>
    <text x="20" y="29" font-family="sans-serif" font-weight="bold" font-size="24" fill="rgba(255,255,255,0.6)" text-anchor="middle">K</text>
  </g>
</svg>